<svg width="196" height="60" viewBox="0 0 196 60" fill="none" xmlns="http://www.w3.org/2000/svg">
<path d="M7.85 34.8V30.6H19.5C21.4333 30.6 22.9833 30.0167 24.15 28.85C25.35 27.6833 25.95 26.15 25.95 24.25C25.95 22.2833 25.35 20.7333 24.15 19.6C22.9833 18.4667 21.4333 17.9 19.5 17.9H8.65V46H3.85V13.55H19.3C20.9 13.55 22.3833 13.7833 23.75 14.25C25.15 14.6833 26.3667 15.35 27.4 16.25C28.4667 17.15 29.2833 18.2667 29.85 19.6C30.45 20.9333 30.75 22.4833 30.75 24.25C30.75 25.9833 30.45 27.5167 29.85 28.85C29.2833 30.1833 28.4667 31.3 27.4 32.2C26.3667 33.0667 25.15 33.7167 23.75 34.15C22.3833 34.5833 20.9 34.8 19.3 34.8H7.85ZM45.5789 46.5C43.4456 46.5 41.4956 45.95 39.7289 44.85C37.9622 43.75 36.5622 42.2333 35.5289 40.3C34.4956 38.3333 33.9789 36.0833 33.9789 33.55C33.9789 31.0167 34.4956 28.7833 35.5289 26.85C36.5956 24.8833 38.0456 23.35 39.8789 22.25C41.7122 21.1167 43.7622 20.55 46.0289 20.55C48.5289 20.55 50.4622 21.1333 51.8289 22.3C53.2289 23.4667 54.1956 25.0333 54.7289 27C55.2956 28.9667 55.5789 31.15 55.5789 33.55C55.5789 34.8833 55.4122 36.3 55.0789 37.8C54.7456 39.3 54.2122 40.7167 53.4789 42.05C52.7456 43.3833 51.7289 44.4667 50.4289 45.3C49.1289 46.1 47.5122 46.5 45.5789 46.5ZM46.9289 42.35C48.6956 42.35 50.1789 41.9667 51.3789 41.2C52.6122 40.4 53.5289 39.3333 54.1289 38C54.7289 36.6667 55.0289 35.1833 55.0289 33.55C55.0289 31.7833 54.7122 30.2333 54.0789 28.9C53.4789 27.5667 52.5622 26.5333 51.3289 25.8C50.1289 25.0667 48.6622 24.7 46.9289 24.7C44.3289 24.7 42.3122 25.5333 40.8789 27.2C39.4789 28.8667 38.7789 30.9833 38.7789 33.55C38.7789 35.2833 39.1289 36.8167 39.8289 38.15C40.5289 39.45 41.4789 40.4833 42.6789 41.25C43.9122 41.9833 45.3289 42.35 46.9289 42.35ZM55.0289 21.05H59.8289V46H55.4289C55.4289 46 55.3956 45.7 55.3289 45.1C55.2622 44.4667 55.1956 43.7167 55.1289 42.85C55.0622 41.9833 55.0289 41.2167 55.0289 40.55V21.05ZM66.0895 21.05H70.8895V46H66.0895V21.05ZM79.3395 25.3C77.6061 25.3 76.1228 25.7 74.8895 26.5C73.6895 27.3 72.7228 28.2833 71.9895 29.45C71.2895 30.6167 70.8228 31.7333 70.5895 32.8L70.5395 29.95C70.5728 29.6167 70.6561 29.1 70.7895 28.4C70.9561 27.6667 71.2395 26.85 71.6395 25.95C72.0395 25.05 72.5728 24.2 73.2395 23.4C73.9061 22.5667 74.7395 21.8833 75.7395 21.35C76.7395 20.8167 77.9395 20.55 79.3395 20.55V25.3ZM81.9664 21.05H98.1164V25.2H81.9664V21.05ZM87.6664 14.45H92.4164V46H87.6664V14.45ZM114.272 46.55C111.839 46.55 109.606 46.0333 107.572 45C105.539 43.9667 103.922 42.4833 102.722 40.55C101.522 38.6167 100.922 36.3 100.922 33.6C100.922 30.8667 101.522 28.5333 102.722 26.6C103.922 24.6333 105.539 23.1333 107.572 22.1C109.606 21.0667 111.839 20.55 114.272 20.55C116.706 20.55 118.922 21.0667 120.922 22.1C122.922 23.1333 124.522 24.6333 125.722 26.6C126.922 28.5333 127.522 30.8667 127.522 33.6C127.522 36.3 126.922 38.6167 125.722 40.55C124.522 42.4833 122.922 43.9667 120.922 45C118.922 46.0333 116.706 46.55 114.272 46.55ZM114.272 42.4C115.772 42.4 117.156 42.0667 118.422 41.4C119.722 40.7 120.756 39.7 121.522 38.4C122.322 37.0667 122.722 35.4667 122.722 33.6C122.722 31.7 122.322 30.0833 121.522 28.75C120.756 27.4167 119.722 26.4 118.422 25.7C117.156 25 115.772 24.65 114.272 24.65C112.772 24.65 111.372 25 110.072 25.7C108.772 26.3667 107.722 27.3667 106.922 28.7C106.122 30.0333 105.722 31.6667 105.722 33.6C105.722 35.4667 106.106 37.0667 106.872 38.4C107.672 39.7 108.722 40.7 110.022 41.4C111.322 42.0667 112.739 42.4 114.272 42.4ZM131.445 37.9H135.845C136.011 39.2333 136.611 40.3333 137.645 41.2C138.678 42.0333 140.128 42.45 141.995 42.45C143.195 42.45 144.128 42.3167 144.795 42.05C145.461 41.75 145.928 41.35 146.195 40.85C146.495 40.35 146.645 39.8 146.645 39.2C146.645 38.4333 146.445 37.85 146.045 37.45C145.645 37.0167 145.078 36.6667 144.345 36.4C143.611 36.1 142.745 35.8167 141.745 35.55C140.645 35.25 139.545 34.9 138.445 34.5C137.345 34.1 136.328 33.6167 135.395 33.05C134.495 32.4833 133.761 31.7833 133.195 30.95C132.661 30.0833 132.395 29.0333 132.395 27.8C132.395 26.7667 132.611 25.8 133.045 24.9C133.511 24 134.161 23.2333 134.995 22.6C135.861 21.9333 136.861 21.4333 137.995 21.1C139.128 20.7333 140.378 20.55 141.745 20.55C143.645 20.55 145.245 20.9 146.545 21.6C147.845 22.2667 148.828 23.2167 149.495 24.45C150.195 25.6833 150.561 27.1 150.595 28.7H146.395C146.161 27.3 145.678 26.2833 144.945 25.65C144.211 24.9833 143.111 24.65 141.645 24.65C140.211 24.65 139.111 24.9333 138.345 25.5C137.578 26.0667 137.195 26.8333 137.195 27.8C137.195 28.5333 137.461 29.1333 137.995 29.6C138.528 30.0333 139.245 30.4167 140.145 30.75C141.045 31.0833 142.061 31.4333 143.195 31.8C144.261 32.1667 145.278 32.55 146.245 32.95C147.245 33.3167 148.128 33.7667 148.895 34.3C149.695 34.8 150.311 35.4667 150.745 36.3C151.211 37.1 151.445 38.1 151.445 39.3C151.445 40.7667 151.078 42.05 150.345 43.15C149.611 44.2167 148.545 45.05 147.145 45.65C145.778 46.25 144.111 46.55 142.145 46.55C140.345 46.55 138.811 46.3333 137.545 45.9C136.311 45.4667 135.261 44.9 134.395 44.2C133.561 43.5 132.911 42.7667 132.445 42C132.011 41.2 131.711 40.4333 131.545 39.7C131.411 38.9667 131.378 38.3667 131.445 37.9ZM166.77 46.5C164.637 46.5 162.687 45.95 160.92 44.85C159.154 43.75 157.754 42.2333 156.72 40.3C155.687 38.3333 155.17 36.0833 155.17 33.55C155.17 31.0167 155.687 28.7833 156.72 26.85C157.787 24.8833 159.237 23.35 161.07 22.25C162.904 21.1167 164.954 20.55 167.22 20.55C169.72 20.55 171.654 21.1333 173.02 22.3C174.42 23.4667 175.387 25.0333 175.92 27C176.487 28.9667 176.77 31.15 176.77 33.55C176.77 34.8833 176.604 36.3 176.27 37.8C175.937 39.3 175.404 40.7167 174.67 42.05C173.937 43.3833 172.92 44.4667 171.62 45.3C170.32 46.1 168.704 46.5 166.77 46.5ZM168.12 42.35C169.887 42.35 171.37 41.9667 172.57 41.2C173.804 40.4 174.72 39.3333 175.32 38C175.92 36.6667 176.22 35.1833 176.22 33.55C176.22 31.7833 175.904 30.2333 175.27 28.9C174.67 27.5667 173.754 26.5333 172.52 25.8C171.32 25.0667 169.854 24.7 168.12 24.7C165.52 24.7 163.504 25.5333 162.07 27.2C160.67 28.8667 159.97 30.9833 159.97 33.55C159.97 35.2833 160.32 36.8167 161.02 38.15C161.72 39.45 162.67 40.4833 163.87 41.25C165.104 41.9833 166.52 42.35 168.12 42.35ZM176.22 21.05H181.02V46H176.62C176.62 46 176.587 45.7 176.52 45.1C176.454 44.4667 176.387 43.7167 176.32 42.85C176.254 41.9833 176.22 41.2167 176.22 40.55V21.05Z" fill="white"/>
</svg>
